<?xml version="1.0" encoding="UTF-8" standalone="no"?>
<!-- Created with Inkscape (http://www.inkscape.org/) -->

<svg
   xmlns:dc="http://purl.org/dc/elements/1.1/"
   xmlns:cc="http://creativecommons.org/ns#"
   xmlns:rdf="http://www.w3.org/1999/02/22-rdf-syntax-ns#"
   xmlns:svg="http://www.w3.org/2000/svg"
   xmlns="http://www.w3.org/2000/svg"
   xmlns:sodipodi="http://sodipodi.sourceforge.net/DTD/sodipodi-0.dtd"
   xmlns:inkscape="http://www.inkscape.org/namespaces/inkscape"
   width="43.942001mm"
   height="50.799999mm"
   viewBox="0 0 43.942001 50.799999"
   version="1.1"
   id="svg8"
   sodipodi:docname="stepfinder_logo.svg"
   inkscape:version="0.92.4 (unknown)"
   inkscape:export-filename="/home/matias/stepfinder_logo.png"
   inkscape:export-xdpi="180"
   inkscape:export-ydpi="180">
  <defs
     id="defs2" />
  <sodipodi:namedview
     id="base"
     pagecolor="#ffffff"
     bordercolor="#666666"
     borderopacity="1.0"
     inkscape:pageopacity="0.0"
     inkscape:pageshadow="2"
     inkscape:zoom="4"
     inkscape:cx="95.111847"
     inkscape:cy="100.93375"
     inkscape:document-units="mm"
     inkscape:current-layer="layer1"
     showgrid="false"
     fit-margin-top="0"
     fit-margin-left="0"
     fit-margin-right="0"
     fit-margin-bottom="0"
     inkscape:window-width="1853"
     inkscape:window-height="1017"
     inkscape:window-x="67"
     inkscape:window-y="1114"
     inkscape:window-maximized="1" />
  <metadata
     id="metadata5">
    <rdf:RDF>
      <cc:Work
         rdf:about="">
        <dc:format>image/svg+xml</dc:format>
        <dc:type
           rdf:resource="http://purl.org/dc/dcmitype/StillImage" />
        <dc:title />
      </cc:Work>
    </rdf:RDF>
  </metadata>
  <g
     inkscape:label="Layer 1"
     inkscape:groupmode="layer"
     id="layer1"
     transform="translate(-21.960225,-18.186453)">
    <path
       style="fill:#ffffff;stroke:#000000;stroke-width:0.97744453;stroke-linecap:butt;stroke-linejoin:miter;stroke-miterlimit:4;stroke-dasharray:none;stroke-opacity:1"
       d="m 22.47547,55.976726 10e-7,-24.837295 21.466608,-12.418647 21.46661,12.418647 v 24.837295 l -21.46661,12.418647 z"
       id="path860"
       inkscape:connector-curvature="0" />
    <g
       id="g990"
       transform="matrix(1.0187705,0,0,1.0187705,-1.2017906,-0.8542458)">
      <path
         inkscape:connector-curvature="0"
         id="path904"
         d="M 24.156893,54.114522 H 64.025642"
         style="fill:none;stroke:#cccccc;stroke-width:0.10958912;stroke-linecap:butt;stroke-linejoin:miter;stroke-miterlimit:4;stroke-dasharray:none;stroke-opacity:1" />
      <path
         inkscape:connector-curvature="0"
         id="path904-5"
         d="M 24.156893,51.656122 H 64.025642"
         style="fill:none;stroke:#cccccc;stroke-width:0.10958912;stroke-linecap:butt;stroke-linejoin:miter;stroke-miterlimit:4;stroke-dasharray:none;stroke-opacity:1" />
      <path
         inkscape:connector-curvature="0"
         id="path904-3"
         d="M 24.156893,49.197721 H 64.025642"
         style="fill:none;stroke:#cccccc;stroke-width:0.10958912;stroke-linecap:butt;stroke-linejoin:miter;stroke-miterlimit:4;stroke-dasharray:none;stroke-opacity:1" />
      <path
         inkscape:connector-curvature="0"
         id="path904-56"
         d="M 24.156893,46.739323 H 64.025642"
         style="fill:none;stroke:#cccccc;stroke-width:0.10958912;stroke-linecap:butt;stroke-linejoin:miter;stroke-miterlimit:4;stroke-dasharray:none;stroke-opacity:1" />
      <path
         inkscape:connector-curvature="0"
         id="path904-2"
         d="M 24.156893,44.280923 H 64.025642"
         style="fill:none;stroke:#cccccc;stroke-width:0.10958912;stroke-linecap:butt;stroke-linejoin:miter;stroke-miterlimit:4;stroke-dasharray:none;stroke-opacity:1" />
      <path
         inkscape:connector-curvature="0"
         id="path904-9"
         d="M 24.156893,41.822523 H 64.025642"
         style="fill:none;stroke:#cccccc;stroke-width:0.10958912;stroke-linecap:butt;stroke-linejoin:miter;stroke-miterlimit:4;stroke-dasharray:none;stroke-opacity:1" />
      <path
         inkscape:connector-curvature="0"
         id="path904-1"
         d="M 24.156893,39.364124 H 64.025642"
         style="fill:none;stroke:#cccccc;stroke-width:0.10958912;stroke-linecap:butt;stroke-linejoin:miter;stroke-miterlimit:4;stroke-dasharray:none;stroke-opacity:1" />
      <path
         inkscape:connector-curvature="0"
         id="path904-1-2"
         d="M 24.156892,36.905723 H 64.025643"
         style="fill:none;stroke:#cccccc;stroke-width:0.10958912;stroke-linecap:butt;stroke-linejoin:miter;stroke-miterlimit:4;stroke-dasharray:none;stroke-opacity:1" />
    </g>
    <path
       style="fill:none;stroke:#000000;stroke-width:0.60000002;stroke-linecap:butt;stroke-linejoin:miter;stroke-miterlimit:4;stroke-dasharray:none;stroke-opacity:1"
       d="m 64.45312,55.055326 c 0,0 -1.672419,-1.597985 -2.725393,-1.597195 -0.511568,3.84e-4 -0.881944,0.518636 -1.322917,0.777953 -0.440972,0.259317 -0.811359,0.774824 -1.322917,0.77795 -0.342863,0.0021 -0.595313,-0.340354 -0.892969,-0.510531 l -0.892968,-0.51053 c -0.595313,-0.340354 -1.120015,-1.184722 -1.785938,-1.021061 -0.635391,0.156157 -0.705555,1.102098 -1.058333,1.653147 -0.352778,0.551049 -0.444541,1.426506 -1.058333,1.653147 -0.73475,0.271305 -1.552454,-0.322454 -2.248959,-0.680708 -0.259842,-0.133652 -0.463021,-0.356561 -0.694531,-0.534842 -0.23151,-0.17828 -0.404823,-0.572922 -0.694531,-0.534841 -0.161874,0.02128 -0.198438,0.259318 -0.297657,0.388977 -0.09922,0.129658 -0.134405,0.386831 -0.297656,0.388975 -0.666635,0.0088 -1.25677,-0.889212 -1.25677,-1.555904 0,-6.49693 0,-19.740524 0,-19.740524 H 31.763664 c 0,0 0,13.67032 0,20.323987 0,0.364681 -0.532098,0.684671 -0.892968,0.632088 -0.265041,-0.03862 -0.297006,-0.452917 -0.496094,-0.632088 -0.362743,-0.326454 -0.764691,-0.887551 -1.240235,-0.77795 -0.335012,0.07721 -0.216053,0.777589 -0.545702,0.875194 -0.25674,0.07602 -0.459964,-0.332411 -0.727604,-0.340353 -0.219363,-0.0065 -0.4034,0.31175 -0.611849,0.243109 -0.317245,-0.104467 -0.249197,-0.668745 -0.529167,-0.850884 -0.195951,-0.127479 -0.189976,-0.035 -0.694531,-0.09725 -0.431421,-0.05323 -0.923413,0.588183 -1.339454,0.72933 l -1.504818,-0.170177"
       id="path877"
       inkscape:connector-curvature="0"
       sodipodi:nodetypes="cssssssssssssssccssssssssscc" />
    <path
       sodipodi:type="star"
       style="opacity:0.6;fill:none;fill-opacity:1;stroke:none;stroke-width:0.04974166;stroke-miterlimit:10;stroke-dasharray:none"
       id="path828"
       sodipodi:sides="6"
       sodipodi:cx="93.156517"
       sodipodi:cy="56.977524"
       sodipodi:r1="23.726192"
       sodipodi:r2="20.547485"
       sodipodi:arg1="0.52359878"
       sodipodi:arg2="1.0471976"
       inkscape:flatsided="true"
       inkscape:rounded="0"
       inkscape:randomized="0"
       d="M 113.704,68.84062 93.156517,80.703716 72.609032,68.84062 l 0,-23.726193 L 93.156517,33.251331 113.704,45.114428 Z"
       inkscape:transform-center-x="-2.7766431e-06"
       transform="matrix(1.0692793,0,0,1.0705468,-55.679109,-17.410653)"
       inkscape:transform-center-y="-1.3980896e-06" />
    <path
       style="fill:none;stroke:#ff0000;stroke-width:0.9341442;stroke-linecap:butt;stroke-linejoin:miter;stroke-miterlimit:4;stroke-dasharray:none;stroke-opacity:1"
       d="m 23.434564,55.446397 10e-7,-23.744392 L 43.943841,19.829812 64.45312,31.702005 V 55.446397 L 43.943841,67.318588 Z"
       id="path860-7"
       inkscape:connector-curvature="0" />
    <text
       xml:space="preserve"
       style="font-style:normal;font-weight:normal;font-size:10.58333302px;line-height:1.25;font-family:sans-serif;letter-spacing:0px;word-spacing:0px;fill:#000000;fill-opacity:1;stroke:none;stroke-width:0.26458332"
       x="5.1167059"
       y="43.137047"
       id="text883"
       transform="rotate(-30)"><tspan
         sodipodi:role="line"
         id="tspan881"
         x="5.1167059"
         y="43.137047"
         style="font-size:4.23333311px;stroke-width:0.26458332">stepfinder</tspan></text>
  </g>
</svg>
